<?xml version="1.0" encoding="UTF-8" standalone="no"?>
<!-- Created with Inkscape (http://www.inkscape.org/) -->

<svg
   xmlns:dc="http://purl.org/dc/elements/1.1/"
   xmlns:cc="http://creativecommons.org/ns#"
   xmlns:rdf="http://www.w3.org/1999/02/22-rdf-syntax-ns#"
   xmlns:svg="http://www.w3.org/2000/svg"
   xmlns="http://www.w3.org/2000/svg"
   xmlns:sodipodi="http://sodipodi.sourceforge.net/DTD/sodipodi-0.dtd"
   xmlns:inkscape="http://www.inkscape.org/namespaces/inkscape"
   width="744.09448819"
   height="1052.3622047"
   id="svg2"
   version="1.1"
   inkscape:version="0.48.3.1 r9886"
   sodipodi:docname="uploadmarker.svg">
  <defs
     id="defs4">
    <inkscape:perspective
       sodipodi:type="inkscape:persp3d"
       inkscape:vp_x="0 : 526.18109 : 1"
       inkscape:vp_y="0 : 1000 : 0"
       inkscape:vp_z="744.09448 : 526.18109 : 1"
       inkscape:persp3d-origin="372.04724 : 350.78739 : 1"
       id="perspective3776" />
  </defs>
  <sodipodi:namedview
     id="base"
     pagecolor="#ffffff"
     bordercolor="#666666"
     borderopacity="1.0"
     inkscape:pageopacity="0.0"
     inkscape:pageshadow="2"
     inkscape:zoom="0.69999999"
     inkscape:cx="-146.86241"
     inkscape:cy="625.1968"
     inkscape:document-units="px"
     inkscape:current-layer="layer1"
     showgrid="false"
     inkscape:window-width="1916"
     inkscape:window-height="1060"
     inkscape:window-x="1600"
     inkscape:window-y="18"
     inkscape:window-maximized="0" />
  <metadata
     id="metadata7">
    <rdf:RDF>
      <cc:Work
         rdf:about="">
        <dc:format>image/svg+xml</dc:format>
        <dc:type
           rdf:resource="http://purl.org/dc/dcmitype/StillImage" />
        <dc:title />
      </cc:Work>
    </rdf:RDF>
  </metadata>
  <g
     inkscape:label="Layer 1"
     inkscape:groupmode="layer"
     id="layer1">
    <path
       style="opacity:0.88429756999999998;fill:#ffffff;fill-opacity:1;stroke:#000000;stroke-width:35;stroke-miterlimit:4;stroke-opacity:1;stroke-dasharray:none;marker-start:none"
       d="m 297.73214,23.955357 c -1.68543,-0.01017 -3.375,0.009 -5.0625,0.03125 C 224.03982,24.454719 160.74269,55.321954 118.13839,96.205357 53.542957,157.80838 24.210995,238.86576 22.794643,318.23661 c -0.651082,42.48567 8.406313,80.98484 29.125,112.71875 -0.343752,-2.2e-4 -0.687498,2.2e-4 -1.03125,0 81.173107,186.57269 145.488617,7.38312 243.499997,559.75 97.43584,-553.67088 168.96717,-372.90853 253.4375,-559.375 -1.15656,0.003 -2.31219,0.0283 -3.46875,0.0312 -0.32292,-2.5e-4 -0.64583,2.5e-4 -0.96875,0 9.11269,-10.06578 15.83492,-23.42357 19.84375,-43.28125 17.90473,-92.73454 -1.87902,-192.30904 -68.84375,-270.75 -37.88791,-44.103076 -93.95627,-80.802898 -161.5625,-90.687503 -11.56823,-1.733366 -23.29572,-2.616297 -35.09375,-2.6875 z"
       id="path3796"
       inkscape:connector-curvature="0" />
    <path
       sodipodi:type="arc"
       style="fill:#000000;fill-opacity:1;stroke:#000000;stroke-width:35;stroke-miterlimit:4;stroke-opacity:1;stroke-dasharray:none"
       id="path3984"
       sodipodi:cx="351.53308"
       sodipodi:cy="299.79852"
       sodipodi:rx="86.873116"
       sodipodi:ry="95.964493"
       d="m 438.4062,299.79852 a 86.873116,95.964493 0 1 1 -173.74623,0 86.873116,95.964493 0 1 1 173.74623,0 z"
       transform="matrix(0.76852701,0,0,0.76852701,26.434935,69.06894)" />
    <rect
       style="fill:#0027ff;fill-opacity:1;stroke:#0027ff;stroke-width:45.63544846;stroke-linecap:butt;stroke-linejoin:round;stroke-miterlimit:10;stroke-opacity:1;stroke-dasharray:none;stroke-dashoffset:0"
       id="rect3759"
       width="176.10597"
       height="77.552231"
       x="334.73276"
       y="615.18286" />
    <path
       sodipodi:type="star"
       style="fill:#0027ff;fill-opacity:1;stroke:#0027ff;stroke-width:72.08100890999998001;stroke-linecap:butt;stroke-linejoin:round;stroke-miterlimit:10;stroke-opacity:1;stroke-dasharray:none;stroke-dashoffset:0"
       id="path3767"
       sodipodi:sides="3"
       sodipodi:cx="593.57141"
       sodipodi:cy="478.07645"
       sodipodi:r1="145.74229"
       sodipodi:r2="72.871147"
       sodipodi:arg1="-1.551191"
       sodipodi:arg2="-0.50399344"
       inkscape:flatsided="false"
       inkscape:rounded="0"
       inkscape:randomized="0"
       d="m 596.42855,332.36216 60.95328,110.52289 60.95328,110.5229 -126.19227,-2.47436 -126.19227,-2.47436 65.23899,-108.04853 z"
       inkscape:transform-center-x="0.78453442"
       inkscape:transform-center-y="-16.727561"
       transform="matrix(1.0315421,-0.00851537,0.00945856,0.45989035,-189.673,382.57218)" />
    <rect
       style="fill:#0027ff;fill-opacity:1;stroke:#0027ff;stroke-width:30.25194168;stroke-linecap:butt;stroke-linejoin:round;stroke-miterlimit:10;stroke-opacity:1;stroke-dasharray:none;stroke-dashoffset:0"
       id="rect3759-3"
       width="191.48949"
       height="31.341898"
       x="326.11243"
       y="-775.83008"
       transform="scale(1,-1)" />
    <rect
       style="fill:#0027ff;fill-opacity:1;stroke:#0027ff;stroke-width:19.0524292;stroke-linecap:butt;stroke-linejoin:round;stroke-miterlimit:10;stroke-opacity:1;stroke-dasharray:none;stroke-dashoffset:0"
       id="rect3759-3-9"
       width="202.689"
       height="11.744492"
       x="320.65549"
       y="820.03125" />
  </g>
</svg>
